<?xml version="1.0" encoding="UTF-8"?>
<svg id="Layer_1" data-name="Layer 1" xmlns="http://www.w3.org/2000/svg" viewBox="0 0 473.34 433.51">
  <defs>
    <style>
      .cls-1 {
        stroke-width: 0px;
      }
    </style>
  </defs>
  <path class="cls-1" d="m143.15,423.63c-8.69-3.15-16.94-6.17-24.13-11.98-3.3-2.67-8.42-3.13-12.74-4.5-11.48-3.63-21.81-9.43-31.97-15.85-11.24-7.11-20.77-16.06-29.39-25.87-6.71-7.64-12.31-16.31-17.89-24.85-4.42-6.77-8.83-13.73-11.82-21.18-3.6-8.96-6.24-18.4-8.28-27.85-2.05-9.55-3.38-19.34-4.07-29.09-.88-12.41-1.28-24.91-.97-37.34.24-9.49,1.07-19.13,3.16-28.36,2.45-10.81,5.63-21.66,10.17-31.74,4.95-10.97,11.24-21.47,18.04-31.43,5.29-7.74,11.53-15.2,18.66-21.22,9.45-7.98,19.78-15.13,30.47-21.37,9.89-5.77,20.45-10.74,31.26-14.48,13.73-4.76,27.68-10.09,42.67-8.36,9.13,1.06,16.58-4.16,25.01-5.3,4.7-.64,9.65-1.01,14.26-.22,8.32,1.44,15.43-3.75,15.97-12.01.85-13.04,1.97-26.06,3.25-39.06.86-8.76,5.51-11.96,14.21-10.71,2.05.29,4.23-.43,6.36-.58,2.89-.2,5.83-1.14,7.98,2.28.69,1.1,3.19,1.28,4.92,1.49,4.61.58,9.62-.07,12.65,4.73,1.94,3.07,2.82,6.01.82,9.61-1.22,2.19-1.83,4.96-1.92,7.5-.25,7.32.18,14.67-.16,21.99-.35,7.61,7.72,16.17,16.16,16.6,11.93.6,24.07-.81,35.97,3.11,7.03,2.32,15.12,1.22,22.58,2.51,9.88,1.72,19.7,3.97,29.4,6.54,14.38,3.8,28.37,9.27,40.52,17.63,10.6,7.29,21.36,14.94,28.88,26.06,3.87,5.72,9.19,10.46,13.11,16.16,3.1,4.51,4.76,9.97,7.58,14.7,7.36,12.33,10.8,26.03,14.26,39.71,4.24,16.73,5.05,33.76,2.58,50.78-2.63,18.08-5.77,36.1-9.23,54.04-.93,4.86-4.14,9.23-5.71,14.01-4.21,12.75-10.94,24.18-17.95,35.48-8.04,12.98-17.98,24.52-29.3,34.55-8.23,7.29-17.74,13.34-27.31,18.86-8.48,4.89-17.78,8.36-26.78,12.33-7.16,3.16-14.57,5.81-21.57,9.28-7.11,3.52-15.41,3.09-22.13,6.36-6.95,3.39-13.44,1.58-20.15,1.54h12.18c-.01-.46-.03-.92-.04-1.38-5.61.35-11.23.96-16.84.92-1.88-.02-3.68-1.84-5.62-2.61-6.63-2.63-12.58.42-18.56,2.56-2.53.9-4.83,2.46-7.23,3.73-.29.15-.56.41-.86.45-7.92.92-15.85,1.82-24,1.7.76-.29,1.52-.57,1.35-.51-10.3-2.79-21.36-5.8-33.31-9.04-1.09,0-3.38-.23-5.6.05-4.31.53-8.41.29-12.93,2.25-5.02,2.19-11.73.53-17.71.44-1.44-.02-2.87-.51-4.32-.7-1.15-.15-2.97.29-3.36-.3-2.88-4.27-6.73-2.15-10.58-2.06m274.58-174.93c-.24,5.3-.48,10.6-.71,15.9-.53.02-1.07.05-1.6.07-.83-4.73-1.09-9.65-2.64-14.12-1.51-4.36-4.35-8.26-6.6-12.37l-1.45.47v22.47c-.21,0-.42,0-.63-.01v-25.9c-1.18,1.58-1.3,3.25-1.36,4.93-.34,9.12-.23,18.27-1.08,27.34-1.6,17.19-7.27,33.18-15.68,48.21-1.24,2.22-2.79,4.27-4.34,6.29-.19.25-1.33-.08-1.93-.35-.69-.3-1.76-.75-1.84-1.27-.99-6.15-1.06-12.57-2.88-18.45-2.51-8.08-5.84-15.99-9.69-23.54-5.51-10.79-12.78-17.46-22.99-23.01,1.89,16.59-2.57,32.38-10.1,46.88-7.3,14.06-16.49,27.23-29.62,39.05,1.04-25.44-5.6-45.75-28.04-59.31,2.39,13.56,1.07,25.99-3.36,38.23-4.34,12.01-11.03,22.28-21.03,32.02,1.78-12.34,1.3-23.44-2.62-33.97-2.6-6.99-6.31-13.59-9.83-20.2-2.35-4.4-5.19-4.02-7.96.31-4.92,7.68-6.98,16.24-7.96,25.08-.95,8.53-1.32,17.13-2.02,25.69-.06.77-.72,1.49-1.09,2.23-.51-.28-1.14-.46-1.52-.87-1.86-2.01-3.95-3.88-5.42-6.15-4.45-6.88-10.13-13.45-12.57-21.03-2.72-8.46-2.56-17.88-3.36-26.91-.38-4.23-.06-8.52-.06-13.86-20.64,13.64-26.98,32.74-26.12,55.51-1.72-.31-3.03-.19-3.86-.75-9.21-6.23-15.99-14.8-21.75-24.08-3.33-5.37-5.62-11.4-8.2-17.21-1.83-4.12-3.9-8.24-4.91-12.59-1-4.29-.8-8.87-1.16-13.32-.49-6-1-12-1.5-17.92-24.78,17.26-35.55,41.98-37.83,72.33-4.19-5.8-8.13-9.85-10.37-14.69-3.08-6.67-4.82-13.96-7.27-20.93-.76-2.18-2.53-4.12-2.84-6.32-.68-4.79-.86-9.68-1.01-14.53-.2-6.56-.2-13.13-.24-19.7-.04-6.08,0-12.16,0-17.87-8.81,9.16-10.52,21.52-13.06,33.66-.95-1.44-1.61-2.78-1.85-4.19-1.75-10.44-4.22-20.76-2.15-31.55,1.49-7.75,2.19-15.67,2.91-23.54.26-2.82-.47-5.73-.75-8.59-.54.02-1.08.04-1.62.06-6.29,14.57-10.25,29.84-12.32,45.54-2.11,16.01-1.85,32.12,1.09,48.03,2.83,15.35,7.8,29.95,16.94,44.49.63-2.99.92-4.36,1.29-6.09.43,1.19.73,2.04,1.48,4.14-.39-6.24-.69-11.04-.99-15.85.41-.02.83-.03,1.24-.05,4.57,18.8,15.21,34.26,26.31,47.23.55-3.53.31-7.49,1.89-10.48,1.46-2.76,4.89-4.49,8.42-7.49.2,12.37,5.88,20.23,12.91,27.38,6.62,6.73,13.5,13.09,22.27,16.65.24-.36.49-.73.73-1.09.31,1.42.62,2.85.93,4.27-2.06-18.69,5.63-27.18,14.17-29.38,3.03,5.49,4.9,12.01,9.17,15.9,7.12,6.49,15.71,11.4,23.89,16.64,1.01.64,3.34-.78,5.17-1.28-.09-.31.16.55.59,2.04.65-6.76,2.93-11.83,7.54-14.88,5.41,4.64,10.75,8.58,15.33,13.26,9.05,9.24,19.92,11.97,31.94,8.79,11.1-2.94,20.23-9.81,27.97-18.14,5.05-5.43,8.05-6.1,10.93,3.04,1.1,3.5.73,7.47,1.03,11.23.15,0,.3.02.45.02l.44-9.27c.6.53.73,1.01.75,1.49.25,7.38.1,7.1,6.12,4.09,11.77-5.89,19.94-15.01,25.56-26.72,1.16-2.43,2.88-4.59,4.2-6.66,6.29.5,9.66,4.75,11.54,9.21,2.8,6.63,4.17,13.86,5.99,20.24,19.24-8.58,28.64-26.52,36.6-45.95,5.12,5.75,11.35,10.54,10.01,19.96,6.05-5.61,15.15-21.55,17.05-28.48,1.41-5.16,3.07-10.29,5.16-15.2,1.06-2.5,3.32-4.49,5.03-6.71.49.11.99.23,1.48.34-.46,5.46-.91,10.91-1.37,16.37.6.02,1.19.04,1.79.05,28.15-45.12,23.95-91.56,3.8-138.62.48,17.77,3.92,35.51,1.06,54.27M125.26,181.03c17.85.61,35.36-1.07,53.39-8.22-2.75-1.89-4.59-3.76-6.81-4.56-4.96-1.76-10.27-2.58-15.14-4.52-9.31-3.71-18.49-7.78-27.58-12-8.13-3.78-16.09-7.91-24.07-12.01-2.39-1.23-4.56-2.88-7.22-4.59-1.28,2.09-2.46,3.97-3.61,5.87-3.6,5.96-2.05,12.59-2.57,18.97-.41,5.07.42,9.58,4.54,12.79,3.39,2.65,6.85,5.95,10.79,6.96,5.51,1.41,11.5.95,18.27,1.3m172.28-12.04c-1.1.67-2.21,1.33-3.31,2,1.16,1.37,2.06,3.49,3.53,4,18.62,6.57,38.01,6.73,57.36,5.73,4.6-.24,9.44-.57,14.18-3.52,6.56-4.08,9.31-10.06,9.98-16.35.66-6.24-1.45-12.83-2.69-19.2-1.03-5.25-3.38-6.61-6.73-4.51-2.58,1.62-5.07,3.41-7.78,4.78-9.9,5.01-19.67,10.39-29.88,14.67-11.08,4.64-22.61,8.21-34.65,12.4Z"/>
  <path class="cls-1" d="m.73,230.36c0,8.57,0,16.69,0,24.81-.24,0-.48,0-.73,0v-30.11c.24,0,.48-.02.73-.03,0,1.63,0,3.25,0,5.33Z"/>
  <path class="cls-1" d="m472.73,213.12c.06-.85.12-1.34.17-1.83.14,0,.29,0,.43,0v24.91c-.2,0-.41,0-.61.01,0-7.58,0-15.15,0-23.09Z"/>
  <path class="cls-1" d="m39.73,262.03v-10.9h.64v22c-.21,0-.42.02-.64.03v-11.13Z"/>
  <path class="cls-1" d="m430.8,274.29c-.04-6.95-.04-13.58-.04-20.22.23,0,.47,0,.7-.01,0,6.91,0,13.82-.01,20.73,0,.08-.21.16-.32.23-.09-.14-.18-.28-.32-.73Z"/>
</svg>